# xmcd
#
# Track frame offsets: 
#        150
#        19557
#        51267
#        64020
#        83395
#        112760
#        141855
#        157872
#        192575
#
# Disc length: 3383 seconds
#
# Revision: 1
# Processed by: cddbd v1.5.2PL0 Copyright (c) Steve Scherf et al.
# Submitted via: ExactAudioCopyFreeDBPlugin 1.0
#
DISCID=660d3509
DTITLE=Weeds Grow Apace - Lachrymose
DYEAR=1900
DGENRE=
TTITLE0=Sunday morning
TTITLE1=Fucking into a coloured depression end of short fascinating mo
TTITLE1=ments without any word behind the wall of doubt
TTITLE2=Stranger's eyes
TTITLE3=Flowers embraced by a wave floating at a warm spot
TTITLE4=These nice eyes
TTITLE5=Tom Learmont
TTITLE6=What's happening here
TTITLE7=Front-line city
TTITLE8=Dreams
EXTD=
EXTT0=
EXTT1=
EXTT2=
EXTT3=
EXTT4=
EXTT5=
EXTT6=
EXTT7=
EXTT8=
PLAYORDER=
